<!-- Generated by IcoMoon.io -->
<svg version="1.1" xmlns="http://www.w3.org/2000/svg" width="26" height="28" viewBox="0 0 26 28">
<title>twitter</title>
<path d="M26.544 5.613c-0.756 1.1-1.702 2.080-2.784 2.87 0.017 0.241 0.017 0.481 0.017 0.722 0 7.339-5.586 15.795-15.795 15.795-3.145 0-6.067-0.911-8.525-2.492 0.447 0.052 0.877 0.069 1.341 0.069 2.595 0 4.984-0.877 6.892-2.372-2.441-0.052-4.486-1.65-5.191-3.85 0.344 0.052 0.688 0.086 1.048 0.086 0.498 0 0.997-0.069 1.461-0.189-2.544-0.516-4.452-2.75-4.452-5.448v-0.069c0.739 0.412 1.598 0.67 2.509 0.705-1.495-0.997-2.475-2.698-2.475-4.623 0-1.031 0.275-1.977 0.756-2.802 2.733 3.369 6.841 5.569 11.447 5.809-0.086-0.412-0.137-0.842-0.137-1.272 0-3.059 2.475-5.552 5.552-5.552 1.598 0 3.042 0.67 4.056 1.753 1.255-0.241 2.458-0.705 3.523-1.341-0.412 1.289-1.289 2.372-2.441 3.059 1.117-0.12 2.2-0.43 3.197-0.859z"></path>
</svg>
